# xmcd CD database file
#
# Track frame offsets:
#	150
#	14335
#	34703
#	51591
#	68793
#	89533
#	110451
#	130275
#	153603
#	166541
#	192513
#	223967
#	241465
#
# Disc length: 3512 seconds
#
# Revision: 0
# Processed by: cddbd v1.5.2PL0 Copyright (c) Steve Scherf et al.
# Submitted via: CDex 1.70beta2
#
DISCID=bc0db60d
DTITLE=Diana Krall - Glad Rag Doll
DYEAR=2012
DGENRE=Jazz
TTITLE0=We Just Couldn't Say Goodbye
TTITLE1=There Ain't No Sweet Man That's Worth The Salt Of My Tears
TTITLE2=Just Like A Butterfly That's Caught In The Rain
TTITLE3=You Know - I Know Ev'rything's Made For Love
TTITLE4=Glad Rag Doll
TTITLE5=I'm A Little Mixed Up
TTITLE6=Prairie Lullaby
TTITLE7=Here Lies Love
TTITLE8=I Used To Love You But It's All Over Now
TTITLE9=Let It Rain
TTITLE10=Lonely Avenue
TTITLE11=Wide River To Cross
TTITLE12=When The Curtain Comes Down
EXTD=YEAR: 2012
EXTT0=
EXTT1=
EXTT2=
EXTT3=
EXTT4=
EXTT5=
EXTT6=
EXTT7=
EXTT8=
EXTT9=
EXTT10=
EXTT11=
EXTT12=
PLAYORDER=
